<svg width="250" height="76" viewBox="0 0 250 76" fill="none" xmlns="http://www.w3.org/2000/svg">
<path d="M62.5598 37.92H68.4398C68.5598 39.68 69.8798 41.24 72.5598 41.24C74.9598 41.24 76.5598 40.12 76.5998 38.32C76.6398 37.08 76.0398 36 73.2798 35.2L69.9598 34.28C63.8798 32.36 62.8398 28.88 62.8398 26.36C62.8398 21.44 67.0398 18.12 72.3198 18.12C77.6398 18.12 81.6398 21.28 81.6398 26.56H75.7998C75.7998 24.68 74.5998 23.44 72.2398 23.44C70.1998 23.44 68.6798 24.56 68.6798 26.2C68.6798 26.92 68.9198 28.24 71.6398 29L74.9198 30.04C81.5998 31.96 82.5998 35.76 82.4798 38.36C82.3598 43.8 77.4798 46.44 72.5598 46.44C66.5998 46.44 62.5598 42.88 62.5598 37.92ZM98.4857 37.2V27.32H104.046V46H98.4857V43.44C97.4857 45.32 95.4457 46.4 93.6457 46.4C89.4457 46.4 86.2457 43.8 86.2457 38.48V27.32H91.8057V37.28C91.8057 40.28 93.8457 41 95.1257 41C96.8457 41 98.4857 40.04 98.4857 37.2ZM114.82 36.72C114.82 39.52 116.9 41.16 119.14 41.16C121.54 41.16 123.46 39.44 123.46 36.72C123.46 33.96 121.5 32.2 119.14 32.2C116.78 32.2 114.82 34 114.82 36.72ZM109.18 27.32H114.7V29.64C115.62 27.92 117.82 26.92 120.18 26.92C124.98 26.92 129.22 30.68 129.22 36.6C129.22 42.6 124.98 46.4 120.18 46.4C117.82 46.4 115.62 45.44 114.7 43.72V55.16H109.18V27.32ZM147.083 46V43.88C145.923 45.64 143.043 46.36 141.643 46.36C136.883 46.36 132.123 42.6 132.123 36.64C132.123 30.68 136.883 26.92 141.643 26.92C142.883 26.92 145.563 27.36 147.083 29.4V27.32H152.603V46H147.083ZM137.883 36.64C137.883 39.32 140.203 41.08 142.563 41.08C144.843 41.08 147.083 39.44 147.083 36.64C147.083 33.88 144.843 32.2 142.563 32.2C140.203 32.2 137.883 33.96 137.883 36.64Z" fill="white"/>
<path d="M169.615 23.6H164.295V31.36H169.455C171.735 31.36 172.935 29.24 172.935 27.48C172.935 25.76 171.855 23.6 169.615 23.6ZM158.415 46V18.44H169.735C176.015 18.44 178.815 22.96 178.815 27.48C178.815 32.08 176.015 36.48 169.735 36.48H164.295V46H158.415ZM187.225 32.28C187.225 36.88 190.745 40.6 195.345 40.6C199.905 40.6 203.505 36.88 203.505 32.28C203.505 27.68 199.905 23.92 195.345 23.92C190.745 23.92 187.225 27.68 187.225 32.28ZM181.385 32.28C181.385 24.48 187.545 18.12 195.345 18.12C203.185 18.12 209.345 24.48 209.345 32.28C209.345 40.04 203.185 46.4 195.345 46.4C187.545 46.4 181.385 40.04 181.385 32.28ZM212.755 37.92H218.635C218.755 39.68 220.075 41.24 222.755 41.24C225.155 41.24 226.755 40.12 226.795 38.32C226.835 37.08 226.235 36 223.475 35.2L220.155 34.28C214.075 32.36 213.035 28.88 213.035 26.36C213.035 21.44 217.235 18.12 222.515 18.12C227.835 18.12 231.835 21.28 231.835 26.56H225.995C225.995 24.68 224.795 23.44 222.435 23.44C220.395 23.44 218.875 24.56 218.875 26.2C218.875 26.92 219.115 28.24 221.835 29L225.115 30.04C231.795 31.96 232.795 35.76 232.675 38.36C232.555 43.8 227.675 46.44 222.755 46.44C216.795 46.44 212.755 42.88 212.755 37.92Z" fill="#4FD1C5"/>
<g clip-path="url(#clip0_720_196)">
<path d="M33.8813 52.8713L5.83475 41.5397L3.9174 38.6756L2.88498 35.3177L1.70508 30.7746L3.9174 25.4415L5.83475 21.886L34.7729 35.6751L33.8813 52.8713Z" fill="url(#paint0_linear_720_196)"/>
<path d="M7.21263 21.2448L33.0772 34.3801L34.194 35.6751L34.784 37.2442L35.703 40.6021L36.7534 45.1452L34.784 50.4784L22.8747 49.5844L5.08043 41.2068L2.56055 33.9114L7.21263 21.2448Z" fill="url(#paint1_linear_720_196)"/>
<path d="M32.2534 54.7361L3.856 75.1282L3.64551 54.7361L32.2534 39.9951C35.1801 38.9602 34.2887 35.8822 33.0693 34.3924C44.3075 40.7592 36.936 50.5543 32.2534 54.7361Z" fill="#4FD1C5"/>
<path d="M6.20524 21.2639L34.6026 0.871887L34.8131 21.2639L6.20524 36.0049C3.2786 37.0399 4.9858 40.2782 6.20524 41.768C-5.03305 35.4011 1.52262 25.4458 6.20524 21.2639Z" fill="#4FD1C5"/>
</g>
<defs>
<linearGradient id="paint0_linear_720_196" x1="34.89" y1="51.278" x2="6.31884" y2="36.5302" gradientUnits="userSpaceOnUse">
<stop stop-color="#0C0C0C"/>
<stop offset="0.494792" stop-color="#163D2A"/>
<stop offset="1" stop-color="#4FD1C5"/>
</linearGradient>
<linearGradient id="paint1_linear_720_196" x1="7.21258" y1="24.6418" x2="33.8076" y2="36.8621" gradientUnits="userSpaceOnUse">
<stop/>
<stop offset="0.494792" stop-color="#163D2A"/>
<stop offset="1" stop-color="#4FD1C5"/>
</linearGradient>
<clipPath id="clip0_720_196">
<rect width="39" height="76" fill="white"/>
</clipPath>
</defs>
</svg>
