<svg width="18" height="35" viewBox="0 0 18 35" fill="none" xmlns="http://www.w3.org/2000/svg">
<g clip-path="url(#clip0_557_2043)">
<path d="M15.6377 24.3486L2.69311 19.1301L1.80818 17.8111L1.33168 16.2647L0.787109 14.1725L1.80818 11.7165L2.69311 10.0791L16.0492 16.4293L15.6377 24.3486Z" fill="url(#paint0_linear_557_2043)"/>
<path d="M3.32876 9.78375L15.2662 15.8329L15.7817 16.4293L16.054 17.1519L16.4782 18.6983L16.963 20.7906L16.054 23.2466L10.5574 22.8349L2.34466 18.9768L1.18164 15.6171L3.32876 9.78375Z" fill="url(#paint1_linear_557_2043)"/>
<path d="M14.8862 25.2074L1.77977 34.5985L1.68262 25.2074L14.8862 18.4188C16.237 17.9422 15.8256 16.5247 15.2628 15.8386C20.4497 18.7707 17.0475 23.2816 14.8862 25.2074Z" fill="#4FD1C5"/>
<path d="M2.86396 9.79256L15.9704 0.401489L16.0676 9.79256L2.86396 16.5812C1.5132 17.0578 2.30114 18.5491 2.86396 19.2352C-2.32295 16.3031 0.702747 11.7184 2.86396 9.79256Z" fill="#4FD1C5"/>
</g>
<defs>
<linearGradient id="paint0_linear_557_2043" x1="16.1032" y1="23.6149" x2="2.92874" y2="16.7996" gradientUnits="userSpaceOnUse">
<stop stop-color="#0C0C0C"/>
<stop offset="0.494792" stop-color="#163D2A"/>
<stop offset="1" stop-color="#4FD1C5"/>
</linearGradient>
<linearGradient id="paint1_linear_557_2043" x1="3.32873" y1="11.3482" x2="15.5939" y2="16.9964" gradientUnits="userSpaceOnUse">
<stop/>
<stop offset="0.494792" stop-color="#163D2A"/>
<stop offset="1" stop-color="#4FD1C5"/>
</linearGradient>
<clipPath id="clip0_557_2043">
<rect width="18" height="35" fill="white"/>
</clipPath>
</defs>
</svg>
