<svg width="87" height="20" viewBox="0 0 87 20" fill="none" xmlns="http://www.w3.org/2000/svg">
<path d="M0.88 10.9599H3.82C3.88 11.8399 4.54 12.6199 5.88 12.6199C7.08 12.6199 7.88 12.0599 7.9 11.1599C7.92 10.5399 7.62 9.99994 6.24 9.59994L4.58 9.13994C1.54 8.17994 1.02 6.43994 1.02 5.17994C1.02 2.71994 3.12 1.05994 5.76 1.05994C8.42 1.05994 10.42 2.63994 10.42 5.27994H7.5C7.5 4.33994 6.9 3.71994 5.72 3.71994C4.7 3.71994 3.94 4.27994 3.94 5.09994C3.94 5.45994 4.06 6.11994 5.42 6.49994L7.06 7.01994C10.4 7.97994 10.9 9.87994 10.84 11.1799C10.78 13.8999 8.34 15.2199 5.88 15.2199C2.9 15.2199 0.88 13.4399 0.88 10.9599ZM18.843 10.5999V5.65994H21.623V14.9999H18.843V13.7199C18.343 14.6599 17.323 15.1999 16.423 15.1999C14.323 15.1999 12.723 13.8999 12.723 11.2399V5.65994H15.503V10.6399C15.503 12.1399 16.523 12.4999 17.163 12.4999C18.023 12.4999 18.843 12.0199 18.843 10.5999ZM27.0102 10.3599C27.0102 11.7599 28.0502 12.5799 29.1702 12.5799C30.3702 12.5799 31.3302 11.7199 31.3302 10.3599C31.3302 8.97994 30.3502 8.09994 29.1702 8.09994C27.9902 8.09994 27.0102 8.99994 27.0102 10.3599ZM24.1902 5.65994H26.9502V6.81994C27.4102 5.95994 28.5102 5.45994 29.6902 5.45994C32.0902 5.45994 34.2102 7.33994 34.2102 10.2999C34.2102 13.2999 32.0902 15.1999 29.6902 15.1999C28.5102 15.1999 27.4102 14.7199 26.9502 13.8599V19.5799H24.1902V5.65994ZM43.1414 14.9999V13.9399C42.5614 14.8199 41.1214 15.1799 40.4214 15.1799C38.0414 15.1799 35.6614 13.2999 35.6614 10.3199C35.6614 7.33994 38.0414 5.45994 40.4214 5.45994C41.0414 5.45994 42.3814 5.67994 43.1414 6.69994V5.65994H45.9014V14.9999H43.1414ZM38.5414 10.3199C38.5414 11.6599 39.7014 12.5399 40.8814 12.5399C42.0214 12.5399 43.1414 11.7199 43.1414 10.3199C43.1414 8.93994 42.0214 8.09994 40.8814 8.09994C39.7014 8.09994 38.5414 8.97994 38.5414 10.3199Z" fill="white"/>
<path d="M54.4075 3.79994H51.7475V7.67994H54.3275C55.4675 7.67994 56.0675 6.61994 56.0675 5.73994C56.0675 4.87994 55.5275 3.79994 54.4075 3.79994ZM48.8075 14.9999V1.21994H54.4675C57.6075 1.21994 59.0075 3.47994 59.0075 5.73994C59.0075 8.03994 57.6075 10.2399 54.4675 10.2399H51.7475V14.9999H48.8075ZM63.2127 8.13994C63.2127 10.4399 64.9727 12.2999 67.2727 12.2999C69.5527 12.2999 71.3527 10.4399 71.3527 8.13994C71.3527 5.83994 69.5527 3.95994 67.2727 3.95994C64.9727 3.95994 63.2127 5.83994 63.2127 8.13994ZM60.2927 8.13994C60.2927 4.23994 63.3727 1.05994 67.2727 1.05994C71.1927 1.05994 74.2727 4.23994 74.2727 8.13994C74.2727 12.0199 71.1927 15.1999 67.2727 15.1999C63.3727 15.1999 60.2927 12.0199 60.2927 8.13994ZM75.9777 10.9599H78.9177C78.9777 11.8399 79.6377 12.6199 80.9777 12.6199C82.1777 12.6199 82.9777 12.0599 82.9977 11.1599C83.0177 10.5399 82.7177 9.99994 81.3377 9.59994L79.6777 9.13994C76.6377 8.17994 76.1177 6.43994 76.1177 5.17994C76.1177 2.71994 78.2177 1.05994 80.8577 1.05994C83.5177 1.05994 85.5177 2.63994 85.5177 5.27994H82.5977C82.5977 4.33994 81.9977 3.71994 80.8177 3.71994C79.7977 3.71994 79.0377 4.27994 79.0377 5.09994C79.0377 5.45994 79.1577 6.11994 80.5177 6.49994L82.1577 7.01994C85.4977 7.97994 85.9977 9.87994 85.9377 11.1799C85.8777 13.8999 83.4377 15.2199 80.9777 15.2199C77.9977 15.2199 75.9777 13.4399 75.9777 10.9599Z" fill="#4FD1C5"/>
</svg>
