<svg width="115" height="35" viewBox="0 0 115 35" fill="none" xmlns="http://www.w3.org/2000/svg">
<path d="M28.88 18.9599H31.82C31.88 19.8399 32.54 20.6199 33.88 20.6199C35.08 20.6199 35.88 20.0599 35.9 19.1599C35.92 18.5399 35.62 17.9999 34.24 17.5999L32.58 17.1399C29.54 16.1799 29.02 14.4399 29.02 13.1799C29.02 10.7199 31.12 9.05994 33.76 9.05994C36.42 9.05994 38.42 10.6399 38.42 13.2799H35.5C35.5 12.3399 34.9 11.7199 33.72 11.7199C32.7 11.7199 31.94 12.2799 31.94 13.0999C31.94 13.4599 32.06 14.1199 33.42 14.4999L35.06 15.0199C38.4 15.9799 38.9 17.8799 38.84 19.1799C38.78 21.8999 36.34 23.2199 33.88 23.2199C30.9 23.2199 28.88 21.4399 28.88 18.9599ZM46.843 18.5999V13.6599H49.623V22.9999H46.843V21.7199C46.343 22.6599 45.323 23.1999 44.423 23.1999C42.323 23.1999 40.723 21.8999 40.723 19.2399V13.6599H43.503V18.6399C43.503 20.1399 44.523 20.4999 45.163 20.4999C46.023 20.4999 46.843 20.0199 46.843 18.5999ZM55.0102 18.3599C55.0102 19.7599 56.0502 20.5799 57.1702 20.5799C58.3702 20.5799 59.3302 19.7199 59.3302 18.3599C59.3302 16.9799 58.3502 16.0999 57.1702 16.0999C55.9902 16.0999 55.0102 16.9999 55.0102 18.3599ZM52.1902 13.6599H54.9502V14.8199C55.4102 13.9599 56.5102 13.4599 57.6902 13.4599C60.0902 13.4599 62.2102 15.3399 62.2102 18.2999C62.2102 21.2999 60.0902 23.1999 57.6902 23.1999C56.5102 23.1999 55.4102 22.7199 54.9502 21.8599V27.5799H52.1902V13.6599ZM71.1414 22.9999V21.9399C70.5614 22.8199 69.1214 23.1799 68.4214 23.1799C66.0414 23.1799 63.6614 21.2999 63.6614 18.3199C63.6614 15.3399 66.0414 13.4599 68.4214 13.4599C69.0414 13.4599 70.3814 13.6799 71.1414 14.6999V13.6599H73.9014V22.9999H71.1414ZM66.5414 18.3199C66.5414 19.6599 67.7014 20.5399 68.8814 20.5399C70.0214 20.5399 71.1414 19.7199 71.1414 18.3199C71.1414 16.9399 70.0214 16.0999 68.8814 16.0999C67.7014 16.0999 66.5414 16.9799 66.5414 18.3199Z" fill="white"/>
<path d="M82.4075 11.7999H79.7475V15.6799H82.3275C83.4675 15.6799 84.0675 14.6199 84.0675 13.7399C84.0675 12.8799 83.5275 11.7999 82.4075 11.7999ZM76.8075 22.9999V9.21994H82.4675C85.6075 9.21994 87.0075 11.4799 87.0075 13.7399C87.0075 16.0399 85.6075 18.2399 82.4675 18.2399H79.7475V22.9999H76.8075ZM91.2127 16.1399C91.2127 18.4399 92.9727 20.2999 95.2727 20.2999C97.5527 20.2999 99.3527 18.4399 99.3527 16.1399C99.3527 13.8399 97.5527 11.9599 95.2727 11.9599C92.9727 11.9599 91.2127 13.8399 91.2127 16.1399ZM88.2927 16.1399C88.2927 12.2399 91.3727 9.05994 95.2727 9.05994C99.1927 9.05994 102.273 12.2399 102.273 16.1399C102.273 20.0199 99.1927 23.1999 95.2727 23.1999C91.3727 23.1999 88.2927 20.0199 88.2927 16.1399ZM103.978 18.9599H106.918C106.978 19.8399 107.638 20.6199 108.978 20.6199C110.178 20.6199 110.978 20.0599 110.998 19.1599C111.018 18.5399 110.718 17.9999 109.338 17.5999L107.678 17.1399C104.638 16.1799 104.118 14.4399 104.118 13.1799C104.118 10.7199 106.218 9.05994 108.858 9.05994C111.518 9.05994 113.518 10.6399 113.518 13.2799H110.598C110.598 12.3399 109.998 11.7199 108.818 11.7199C107.798 11.7199 107.038 12.2799 107.038 13.0999C107.038 13.4599 107.158 14.1199 108.518 14.4999L110.158 15.0199C113.498 15.9799 113.998 17.8799 113.938 19.1799C113.878 21.8999 111.438 23.2199 108.978 23.2199C105.998 23.2199 103.978 21.4399 103.978 18.9599Z" fill="#4FD1C5"/>
<g clip-path="url(#clip0_557_2056)">
<path d="M15.6377 24.3486L2.69311 19.1301L1.80818 17.8111L1.33168 16.2647L0.787109 14.1725L1.80818 11.7165L2.69311 10.0791L16.0492 16.4293L15.6377 24.3486Z" fill="url(#paint0_linear_557_2056)"/>
<path d="M3.32876 9.78375L15.2662 15.8329L15.7817 16.4293L16.054 17.1519L16.4782 18.6983L16.963 20.7906L16.054 23.2466L10.5574 22.8349L2.34466 18.9768L1.18164 15.6171L3.32876 9.78375Z" fill="url(#paint1_linear_557_2056)"/>
<path d="M14.8862 25.2074L1.77977 34.5985L1.68262 25.2074L14.8862 18.4188C16.237 17.9422 15.8256 16.5247 15.2628 15.8386C20.4497 18.7707 17.0475 23.2816 14.8862 25.2074Z" fill="#4FD1C5"/>
<path d="M2.86396 9.79256L15.9704 0.401489L16.0676 9.79256L2.86396 16.5812C1.5132 17.0578 2.30114 18.5491 2.86396 19.2352C-2.32295 16.3031 0.702747 11.7184 2.86396 9.79256Z" fill="#4FD1C5"/>
</g>
<defs>
<linearGradient id="paint0_linear_557_2056" x1="16.1032" y1="23.6149" x2="2.92874" y2="16.7996" gradientUnits="userSpaceOnUse">
<stop stop-color="#0C0C0C"/>
<stop offset="0.494792" stop-color="#163D2A"/>
<stop offset="1" stop-color="#4FD1C5"/>
</linearGradient>
<linearGradient id="paint1_linear_557_2056" x1="3.32873" y1="11.3482" x2="15.5939" y2="16.9964" gradientUnits="userSpaceOnUse">
<stop/>
<stop offset="0.494792" stop-color="#163D2A"/>
<stop offset="1" stop-color="#4FD1C5"/>
</linearGradient>
<clipPath id="clip0_557_2056">
<rect width="18" height="35" fill="white"/>
</clipPath>
</defs>
</svg>
